<svg id="Layer_1" data-name="Layer 1" xmlns="http://www.w3.org/2000/svg" viewBox="0 0 99.4 65.73"><defs><style>.cls-1{fill:#00a896;}</style></defs><title>top</title><path class="cls-1" d="M599.09,200.81c-2.84-6.56-10.07-9.74-16.14-7.11l-29.57,12.8L543.29,190v0a3.19,3.19,0,0,0-.2-0.26,3.4,3.4,0,0,0-3.22-1.31h0l-14.2,2.29h-0.06l-0.21.06a3.45,3.45,0,0,0-.42.11,3.53,3.53,0,0,0-.39.19l-0.2.09h0a3.45,3.45,0,0,0-.41.31l-0.13.1a3.33,3.33,0,0,0-.29.33c0,0.06-.11.11-0.15,0.17a3.41,3.41,0,0,0-.59,1.46,3.27,3.27,0,0,0-.05.38c0,0.06,0,.11,0,0.17a3.36,3.36,0,0,0,0,.51v0a3.29,3.29,0,0,0,.11.43c0,0.06,0,.12,0,0.18a3.41,3.41,0,0,0,.28.59v0l11.35,18.78-22.13,9.58c-6.08,2.63-8.7,10.08-5.86,16.64l5.74,13.26,92.51-40.06Zm-58.21,11.1-9.22-15.25,7-1.13,8.39,13.7Zm33.58,6.22A4.14,4.14,0,1,1,578.6,214a4.14,4.14,0,0,1-4.14,4.14" transform="translate(-505.43 -188.4)"/></svg>