<svg xmlns="http://www.w3.org/2000/svg" viewBox="0 0 102.1 60.69"><path d="M93.66 12.41C90.82 5.85 83.59 2.67 77.52 5.3L47.95 18.1 37.86 1.6a3.19 3.19 0 0 0-.2-.26A3.4 3.4 0 0 0 34.44.03l-14.2 2.29h-.06l-.21.06a3.45 3.45 0 0 0-.42.11 3.53 3.53 0 0 0-.39.19l-.2.09a3.45 3.45 0 0 0-.41.31l-.13.1a3.33 3.33 0 0 0-.29.33c0 .06-.11.11-.15.17a3.41 3.41 0 0 0-.59 1.46 3.27 3.27 0 0 0-.05.38v.17a3.36 3.36 0 0 0 0 .51 3.29 3.29 0 0 0 .11.43v.18a3.41 3.41 0 0 0 .28.59l11.35 18.78-22.13 9.58C.87 38.39-1.75 45.84 1.09 52.4l5.74 13.26L99.34 25.6zm-58.21 11.1L26.23 8.26l7-1.13 8.39 13.7zm33.58 6.22a4.14 4.14 0 1 1 4.14-4.13 4.14 4.14 0 0 1-4.14 4.14" fill="#00a896"/></svg>