<svg id="Layer_1" data-name="Layer 1" xmlns="http://www.w3.org/2000/svg" viewBox="0 0 49.62 38.45"><defs><style>.cls-1{fill:#6ec829;}</style></defs><title>celery</title><path class="cls-1" d="M70.4,71.65c-9.58,2.17-12.74,21.64-18,19-1.54-.77-3-3.75-3.78-7.72a1.82,1.82,0,0,1-.41-3.33,30,30,0,0,1,0-3.89,1.83,1.83,0,0,1,.46-3.59,25.55,25.55,0,0,1,1.12-4,1.83,1.83,0,1,1,1.54-3.31,20.79,20.79,0,0,1,3-4.1,1.72,1.72,0,0,1-.15-0.41,1.83,1.83,0,0,1,1.38-2.19,1.81,1.81,0,0,1,1.41.26,22.6,22.6,0,0,1,4.32-2.52,1.82,1.82,0,0,1,3.39-1.23c0.57-.17,1.16-0.32,1.76-0.46a28.21,28.21,0,0,1,2.78-.48,1.83,1.83,0,0,1,3.33-.19,22.67,22.67,0,0,1,5.36.69,1.83,1.83,0,0,1,3.44,1.19,23,23,0,0,1,4,2.29,1.81,1.81,0,0,1,.7-0.32,1.82,1.82,0,0,1,2,2.58,27.89,27.89,0,0,1,3.28,3.73l0.05,0a1.82,1.82,0,0,1,1.82,2.93c3.61,6.38,4.21,13,1.61,14.52C89,84.43,80,69.47,70.4,71.65" transform="translate(-46.83 -52.45)"/></svg>